<svg width="79" height="32" viewBox="0 0 79 32" fill="none" xmlns="http://www.w3.org/2000/svg">
<g clip-path="url(#clip0_0_3)">
<path fill-rule="evenodd" clip-rule="evenodd" d="M63.2437 0.0203636L74.9483 31.0534L79 31.0545V31.2774H66.1039V31.0545H69.9006L66.0518 20.8495H58.2392V20.8535L58.2811 20.9722C58.5929 21.8729 58.7479 22.8166 58.7383 23.7667V27.5921C58.7383 29.5599 59.6324 31.5543 61.3399 31.5543C62.3424 31.5543 63.1425 31.2111 64.0953 30.3639L64.2312 30.4867C63.1964 31.5485 61.9432 32 60.0639 32C58.6455 32 57.4318 31.6684 56.4551 31.015L56.2701 30.8858C54.9846 29.9409 54.1503 28.3968 53.7912 26.2953L53.7338 25.9561L53.6739 25.4429L53.6679 25.3545L51.514 31.0516H54.5704V31.2751H48.1756V31.0516H51.265L53.6296 24.7953V24.782C53.6043 24.4128 53.5893 24.043 53.5847 23.673V20.9425C53.5847 17.5855 51.0172 15.6596 46.54 15.6596H42.1393V31.0534H45.9523V31.2762H31.05V31.0534H34.8474L30.9985 20.8483H20.3174L16.5044 30.9405L16.6636 30.9149C21.6705 30.0759 23.9729 26.361 24.004 22.4495H24.2362V31.2762H0L17.9905 1.27127H10.756C4.76035 1.27127 2.04682 5.7728 2.00492 10.2604H1.77331V1.04727H23.6108L23.478 1.27127L5.62336 31.0534H15.0166C15.25 31.0534 15.4822 31.0423 15.7162 31.0243C15.8718 31.0138 16.0286 30.9987 16.1878 30.9795L16.2447 30.9737L27.951 0H28.1827L28.1904 0.0203636L37.3885 24.4079V1.27127H33.6013V1.04436H46.6351C52.8995 1.04436 57.2726 4.16989 57.2726 8.64756C57.2726 11.9127 54.2772 14.6228 49.8215 15.3937L49.0033 15.495L49.8275 15.5764C52.5296 15.8772 54.6752 16.6854 56.1959 17.9776L56.2061 17.9869L63.0043 0H63.2353L63.2437 0.0203636ZM58.1255 20.5702L58.1482 20.6249H65.965L60.7145 6.70313L56.3928 18.1475L56.4162 18.169L56.6358 18.3808C57.2716 19.0112 57.7773 19.7548 58.1255 20.5702ZM42.1423 15.4356V1.27127H45.5004C49.9867 1.27127 52.3555 3.83942 52.3555 8.69527C52.3555 13.8601 50.9957 15.4356 46.54 15.4356H42.1423ZM25.6642 6.70313L20.4023 20.6255H30.9147L25.6642 6.70313Z" fill="black"/>
</g>
<defs>
<clipPath id="clip0_0_3">
<rect width="79" height="32" fill="white"/>
</clipPath>
</defs>
</svg>
